<?xml version="1.0" encoding="UTF-8" standalone="no"?>
<svg
   xmlns:dc="http://purl.org/dc/elements/1.1/"
   xmlns:cc="http://creativecommons.org/ns#"
   xmlns:rdf="http://www.w3.org/1999/02/22-rdf-syntax-ns#"
   xmlns:svg="http://www.w3.org/2000/svg"
   xmlns="http://www.w3.org/2000/svg"
   xmlns:sodipodi="http://sodipodi.sourceforge.net/DTD/sodipodi-0.dtd"
   xmlns:inkscape="http://www.inkscape.org/namespaces/inkscape"
   id="svg3133"
   height="297mm"
   width="210mm"
   version="1.1"
   inkscape:version="0.91 r13725"
   sodipodi:docname="forca.svg">
  <sodipodi:namedview
     pagecolor="#ffffff"
     bordercolor="#666666"
     borderopacity="1"
     objecttolerance="10"
     gridtolerance="10"
     guidetolerance="10"
     inkscape:pageopacity="0"
     inkscape:pageshadow="2"
     inkscape:window-width="708"
     inkscape:window-height="480"
     id="namedview15"
     showgrid="false"
     inkscape:zoom="0.22425739"
     inkscape:cx="534.80665"
     inkscape:cy="526.1811"
     inkscape:window-x="0"
     inkscape:window-y="0"
     inkscape:window-maximized="0"
     inkscape:current-layer="svg3133" />
  <metadata
     id="metadata17">
    <rdf:RDF>
      <cc:Work
         rdf:about="">
        <dc:format>image/svg+xml</dc:format>
        <dc:type
           rdf:resource="http://purl.org/dc/dcmitype/StillImage" />
        <dc:title />
      </cc:Work>
    </rdf:RDF>
  </metadata>
  <defs
     id="defs3135" />
  <path
     d="M 78.69131,54.938743 C 53.66923,55.643475 59.78506,87.15749 59.78506,87.15749 l -9.28125,16.4375 c 1.66551,-0.83276 -15.35738,12.47868 -22.3125,33.5 -4.97622,15.04026 0.76447,35.7629 -3.40625,50.0625 -10,34.28572 -8.5625,57.875 -8.5625,57.875 0,0 33.58928,79.97767 22.875,86.40625 -10.71429,6.42857 -7.15625,21.4375 -7.15625,21.4375 0,0 -2.38037,17.49115 -6.35786,37.87797 -0.25206,1.29193 4.40483,-0.81429 1.46909,4.03164 -0.54572,0.90079 -2.22038,1.81112 -2.45625,2.8488 -2.60163,4.35218 -3.81458,10.48579 -3.18623,12.11659 1.20269,3.12148 12.27199,6.41809 38.75,7.3125 1.80066,0.0727 32.08082,5.50132 27.8125,-4.625 -3.76732,-2.25833 -12.56678,-5.26075 -18.15625,-6.5 -5.30064,-1.17521 -8.11562,-6.19489 -11.96875,-11.90625 l 1.3125,-29.1875 c 8.67565,6.98044 49.93291,9.50796 23.125,-7.125 -8.39599,-6.46912 -15,-17.34375 -15,-17.34375 l 3.125,-5.1875 c 4.51864,3.92495 8.59353,4.72914 11.6875,-0.84375 l 38.6875,-53.3125 c 2.79615,-1.79235 4.19622,-4.51482 2.71875,-9.15625 l -2.96875,-8.9375 c -1.52407,-5.48087 -2.98977,-7.98286 -8.5,-10.5 l -20.8125,-13.125 c 0,0 -11.88116,-11.6312 -19.8125,-17.875 -4.41463,-3.47534 -1.27367,-14.01508 0.96875,-19.375 1.71916,2.94936 18.46781,10.16539 32.28125,23 3.82836,3.55707 2.52796,13.69377 6.1875,18.46875 2.66583,3.47838 8.8637,7.55893 11.8125,6.125 7.59085,-8.4687 10.21618,-18.24656 0.15625,-25.1875 -18.54164,-11.65791 -28.89154,-32.4795 -42.3125,-49.4375 0,0 6.50137,-17.09972 3.96875,-32.5625 -2.68225,-16.3764 -11.47422,-27.95526 -2.875,-27.8125 4.00429,0.0665 9.34744,0.80648 11.15625,-1.40625 2.81505,-3.44368 4.63995,-6.36576 7.375,-13.5625 0.28749,-0.75647 3.95268,-0.45478 4.1875,-1.25 0.86548,-2.93086 0.0863,-8.61968 0.0937,-12 0.0191,-8.742603 2.53179,-25.032143 -10.78125,-29.093747 -5.92634,-1.808036 -10.84298,-2.52157 -14.9375,-2.40625 z m -6.40625,219.906247 10.5625,3.375 -7.875,8.59375 -2.6875,-11.96875 z"
     id="fc-2"
     style="fill:#000000;stroke:none" />
  <path
     d="m 66.46186,96.11733 c 6.67042,-8.68886 9.07961,-12.851921 9.82142,-19.464268 0,0 -9.73214,-41.071433 32.41072,-28.21429 13.31304,4.061604 11.51841,18.579562 11.49926,27.322168 -0.007,3.380317 0.74999,9.0662 -0.11549,11.99705 -0.23482,0.79522 -3.88996,0.50025 -4.17745,1.25672 -2.73505,7.19673 -3.66884,11.00962 -6.48389,14.4533 -1.80881,2.21273 -7.16456,1.46579 -11.16885,1.39931 -8.59922,-0.14276 -0.49806,13.74308 2.18419,30.11948 2.53262,15.46278 -2.54134,27.20195 -2.54134,27.20195 18.59953,15.35085 28.23598,35.10412 46.77762,46.76203 10.05993,6.94094 8.84895,14.41213 1.2581,22.88083 -1.32429,0.64397 -8.46141,0.51022 -10.46215,-3.45607 -2.96222,-5.87234 -10.06002,-10.05379 -11.52864,-11.97005 -3.65954,-4.77498 1.02323,-3.30366 -2.80513,-6.86073 -13.81344,-12.83461 -31.43135,-17.88879 -33.15051,-20.83815 -2.24242,5.35992 -5.40501,15.9037 -0.99038,19.37904 l 14.86295,14.99873 20.13629,16.8671 c 10.27161,8.27833 18.86185,16.99415 18.2653,31.00465 -7.58758,19.71718 -15.87353,39.74765 -18.72775,61.15306 -2.74208,4.42924 -4.48274,2.27323 -9.93755,1.39083 -2.29874,2.86542 -1.88942,7.08487 -0.85216,11.61829 0,0 13.03503,5.43405 21.43102,11.90317 27.20645,15.39258 -49.01155,13.42909 -55.14523,-1.62437 -0.7557,-1.85465 23.1347,-67.88319 23.39504,-84.81455 -4.16373,-4.1682 -19.11723,-9.26685 -19.51485,-9.42271 -1.62568,-0.63724 -0.0981,26.75207 -3.7774,49.85651 -3.44959,21.66199 -12.14829,39.12975 -12.71672,38.67239 l -6.1607,36.96428 c 14.34154,22.9305 31.53953,20.59375 29.82143,26.78572 -7.1231,3.78718 -42.16624,-1.53363 -47.94644,-1.42857 -4.6631,-1.33448 -18.45467,5.25409 -13.48214,-16.42857 4.77369,-21.23635 7.96662,-43.21924 9.47476,-65.35023 0.76832,-11.27452 4.63491,-20.18836 4.51495,-31.46064 -0.21156,-19.8798 -5.36142,-42.03216 -8.45399,-61.22485 -0.83758,-0.32573 -6.85517,-16.5483 7.81381,-49.01831 2.18471,-4.83588 -0.70287,-13.05624 -0.71159,-20.69019 -0.006,-5.10362 3.16055,-9.24681 3.01903,-14.52304 -0.241,-8.98506 -0.18803,-17.59413 1.83024,-23.69421 6.95512,-21.02132 23.99973,-34.33557 22.33422,-33.50281 z"
     id="fc-3"
     style="fill:#000000;stroke:none" />
  <path
     d="m 81.44499,92.07673 c 6.67042,-8.688865 9.07961,-12.851931 9.82142,-19.464278 0,0 -9.73214,-41.071433 32.41072,-28.21429 13.31304,4.061604 11.51841,18.579562 11.49926,27.322168 -0.007,3.380317 0.74999,9.066197 -0.11549,11.997053 -0.23482,0.795217 -3.88996,0.500247 -4.17745,1.256717 -2.73505,7.19674 -3.66884,9.40248 -6.48389,12.84616 -1.80881,2.21273 -7.16456,1.46579 -11.16885,1.39931 -8.59922,-0.14276 -1.92663,14.27879 0.75562,30.65519 2.53262,15.46278 -2.36277,31.30909 -2.36277,31.30909 18.59953,15.35085 22.52169,31.88984 41.06333,43.54775 10.05993,6.94094 8.84895,14.41213 1.2581,22.88083 -1.32429,0.64397 -8.46141,0.51022 -10.46215,-3.45607 -3.60006,-11.84136 -10.28673,-17.00126 -14.33377,-18.83078 -13.81344,-12.83461 -22.14563,-12.88879 -23.86479,-15.83815 -3.24806,6.20469 -2.71163,21.825 -0.48642,28.02188 21.32379,28.93059 39.95057,53.05704 37.15273,66.49838 -8.71259,24.09772 -20.37563,50.75662 -24.10205,65.48946 -1.30397,2.67155 -2.68609,1.3174 -8.77683,1.21226 -1.35044,3.01131 -0.36874,1.15124 -1.38788,5.36829 0,0 12.05289,12.84476 25.53816,16.63531 7.01674,3.96986 7.60264,9.86189 3.17673,9.8632 l -22.80869,0.007 c -2.20608,6.5e-4 -19.7268,-4.68049 -30.19823,-6.15131 -3.9228,-0.551 -6.1636,-3.66803 -7.10075,-5.96801 -1.80912,-7.15259 2.92355,-12.76612 6.90984,-18.88552 0.30541,-0.46884 1.73827,0.72797 2.51516,-0.16672 0.83735,-0.96433 1.01371,-4.02629 1.11117,-4.64052 0.18708,-1.17906 -2.24084,-0.89282 -2.07176,-2.07439 3.43218,-23.98468 17.40681,-46.45952 20.96395,-61.11954 -3.86807,-10.24793 -10.87778,-13.12307 -10.87778,-13.12307 0,0 -0.71756,23.86265 -2.7335,36.52187 -11.63466,21.46357 -22.652,43.40727 -25.86477,71.4212 l -5.79309,0.19572 -0.43385,5.62689 c 4.69869,32.9305 24.75382,23.62947 21.25001,31.96429 -8.10881,0.25642 -19.13006,1.44144 -28.38127,-1.30006 -12.18534,-3.61101 -22.77933,-13.19312 -26.55491,-23.00979 -1.11432,-2.89726 3.21215,-12.3978 7.50828,-15.40511 2.12947,0.055 2.46566,-2.22228 2.30271,-2.69677 -0.15495,-0.45118 -2.09089,-1.14644 -1.96405,-1.59663 8.80706,-31.25841 21.22029,-56.8292 23.27437,-73.74921 -0.87513,-21.99213 -6.27778,-43.23923 -10.29228,-64.921 -0.78411,-0.30494 -6.10798,-14.54185 5.25067,-42.99838 0.58008,-1.89219 3.4589,-2.47311 3.86122,-4.50159 2.1957,-11.07054 -0.31267,-25.27528 1.00936,-36.73157 4.43096,-6.45968 -0.18803,-17.59413 1.83024,-23.69421 6.95512,-21.02132 23.99973,-34.33556 22.33422,-33.5028 z"
     id="fc-4"
     style="fill:#000000;stroke:none" />
  <path
     d="m 110.2884,71.515975 c 0,0 -10.08929,-38.035719 32.05357,-25.178576 13.31304,4.061604 11.51841,18.579562 11.49926,27.322168 -0.007,3.380317 0.74999,9.066197 -0.11549,11.997053 -0.23482,0.79522 -3.88996,0.50025 -4.17745,1.25672 -2.73505,7.19674 -3.66884,9.40248 -6.48389,12.84616 -1.80881,2.21273 -7.16403,1.38501 -11.16885,1.39931 -10.02779,0.0358 -1.92662,14.27879 0.75562,30.65519 2.53262,15.46278 -3.96991,39.3448 -3.96991,39.3448 4.67096,10.35085 15.20026,27.7827 27.49191,43.19061 5.23405,3.61129 7.45179,15.30515 4.90739,19.17656 -2.34597,3.5695 -9.29358,1.96316 -12.75643,3.34713 -1.32429,0.64397 -2.03285,-2.70407 -4.03359,-6.67036 -1.27589,-2.33423 -2.36243,-4.38807 -3.29416,-6.20437 -1.20862,-2.35607 0.34327,-2.52672 -0.41971,-4.17695 -5.4593,-8.87365 -10.72037,-16.73238 -18.05612,-24.46618 -3.24806,6.20469 -1.28306,17.89643 0.94215,24.09331 15.96665,33.57345 28.34343,68.41418 25.54559,81.85552 -8.71259,24.09772 -15.37563,43.61377 -19.10205,58.34661 -1.30397,2.67155 -5.7218,0.42454 -11.81254,0.3194 -2.98983,9.63439 1.49491,15.24069 7.50133,18.99539 15.9406,9.9647 34.14679,18.00085 -10.68124,13.51256 -3.9228,-0.55099 -30.80646,-7.23946 -31.74361,-9.53944 2.3734,-10.69688 9.2539,-21.36952 10.69673,-25.54743 0.55429,-1.60501 -2.59084,2.2318 -6.28013,9.55217 l -5.79309,-3.91142 c -1.15291,0.65452 -2.07854,3.12731 -2.75528,7.59118 4.69869,32.9305 11.18239,27.20089 7.67858,35.53571 -10.63809,4.49561 -26.68717,-25.11724 -38.15047,-38.68485 -5.17682,-7.13833 9.86394,-13.42458 14.16007,-16.43189 2.12947,0.0551 2.46566,-2.22228 2.30271,-2.69677 -0.15495,-0.45118 -0.8382,-1.13581 -0.62477,-1.55199 4.89272,-9.54013 30.8428,-34.50777 34.0333,-51.42778 -0.87513,-21.99213 -25.15341,-46.19509 -29.70362,-58.234 -0.78411,-0.30494 -6.69664,-11.58599 4.66201,-40.04252 0.58008,-1.89219 0.24462,-7.11597 0.64694,-9.14445 2.1957,-11.07054 0.58018,-25.27528 1.90221,-36.73157 0.68096,-8.24539 -0.54517,-19.73699 1.4731,-25.83707 4.48301,-15.16442 13.85216,-18.4714 22.34189,-30.70049 2.95152,-4.25152 9.13666,-17.797744 10.52804,-23.159445 z"
     id="fc-5"
     style="fill:#000000;stroke:none" />
  <path
     d="m 79.35654,64.596386 c -21.90579,0.992711 -22.25,42.593754 -22.25,42.593754 -2.40152,5.74051 -11.27761,7.27252 -16.34375,17.71875 -6.63426,13.67964 -5.54542,8.59916 -11.21875,22.625 -2.01827,6.10008 -0.41279,19.62961 -1.09375,27.875 -1.32203,11.45629 0.28945,25.64821 -1.90625,36.71875 -0.40232,2.02848 -0.0762,7.26406 -0.65625,9.15625 -2.45842,13.58187 -2.13538,24.05291 -0.90625,31.59375 3.24265,19.00188 13.27096,31.077 19.34375,46.65625 22.49821,28.74559 -2.7763,28.84777 -11.4375,36.6875 -4.01832,5.93821 -25.44179,1.00825 -21.21875,17.9375 8.10892,9.59748 13.91459,23.75626 20.375,29.625 0.0622,1.17019 -0.67347,2.29732 -0.6875,3.375 -0.0155,1.18866 4.17265,2.13963 3.375,2.875 -8.00646,7.38133 -13.80674,18.27668 -12.625,21.34375 1.20269,3.12148 12.27199,6.41809 38.75,7.3125 1.80066,0.0727 32.08082,5.50132 27.8125,-4.625 -3.76732,-2.25833 -12.56678,-5.26075 -18.15625,-6.5 -6.42443,-1.42437 -9.14452,-8.48171 -14.5625,-15.59375 6.09074,0.10514 13.66478,1.60905 14.96875,-1.0625 5.52261,-12.56207 3.55686,-38.61979 11.71875,-51.5 7.89582,-12.46033 20.22831,-15.93125 27.125,-24.53125 6.27771,-5.50841 7.76438,-16.99936 3.375,-24.625 -5.65148,-9.32504 -11.30265,-16.96272 -16.46875,-23.1875 5.31061,-2.22854 8.45039,2.09007 7.34375,-19.4375 -5.0399,-7.7567 -9.51441,-12.71506 -12.4375,-19.09375 -8.72189,-19.03268 -13.48736,-18.8425 -11.875,-33 0.99071,-8.69905 5.14189,-23.92721 4.9375,-49.375 -1.29297,-7.89418 -6.07888,-8.9942 -7.34375,-16.125 -1.35909,-7.66198 -0.63143,-13.2627 4.5625,-13.28125 4.00482,-0.0143 5.08808,6.63801 10.9375,2.53125 3.64027,-2.55576 4.3587,-3.02202 7.09375,-10.21875 0.28749,-0.75647 3.95268,-0.45478 4.1875,-1.25 0.86548,-2.93086 0.11759,-8.61968 0.125,-12 0.0191,-8.74261 4.64165,-19.771694 -12.25,-28.062504 -4.83207,-2.371691 -9.00917,-3.318694 -12.59375,-3.15625 z m 3.09375,180.218754 c 14.82143,4.91071 11.4375,17.125 11.4375,17.125 l -11.4375,-17.125 z"
     id="fc-1"
     style="fill:#000000;stroke:none" />
  <path
     d="m 66.513814,52.719324 c 18.813,0.371136 16.751,13.522407 17.9008,22.189092 0.4446,3.350962 1.9554,8.884546 1.4895,11.904799 -0.1264,0.819474 -3.9145,0.258195 -4.0982,1.046309 -1.7484,7.49778 -3.4574,7.893529 -5.5622,11.811851 -2.6064,4.851905 -6.5464,0.775865 -10.902,1.325445 -2.5146,0.31727 -4.1303,5.9093 -1.1509,6.21645 1.1388,2.44225 2.9309,5.39377 4.145,9.18871 2.2068,6.89769 10.0464,14.51347 12.3832,22.16393 3.6046,25.19203 1.5145,46.84822 1.6957,55.60164 3.8489,6.91315 1.8018,19.173 1.0561,27.68598 -3.3346,38.0661 -2.974,64.01056 -4.1431,84.92771 -0.3463,6.19451 0.5129,12.28406 0.0602,16.89573 -2.0604,20.98825 -6.6523,28.96655 -12.9043,64.63507 -0.7895,2.38242 -1.152,1.22002 -7.7918,2.57352 -1.2249,0.24968 -0.3235,3.40849 -1.2657,3.51909 7.1945,8.29424 16.6325,13.44398 30.3432,16.20848 5.5838,9.46478 -14.4058,5.05257 -16.2,5.22121 -26.3599,2.65348 -37.7502,0.86893 -39.3594,-2.06374 -1.5812,-2.88155 -3.3565,-12.75719 4.1556,-19.38338 2.5466,-2.24621 1.8931,-4.68352 1.7495,-5.86358 -6.8532,-1.39971 -1.8429,-38.5316 6.7652,-65.72177 -4.4707,-20.79696 -0.2797,-59.81708 -6.2205,-77.89726 -2.2262,-7.30882 -4.9651,-14.44985 -4.3445,-28.23846 0.3219,-1.95275 2.3094,-8.7533 2.4369,-10.81734 0.696,-11.26471 -2.7325,-24.59506 -2.9539,-36.12525 -0.4275,-8.26242 -3.8244,-21.43845 -2.6398,-27.75361 3.7473,-14.6584 0.4103,-16.64387 5.1561,-31.08764 0.9762,-2.97088 2.649,-5.56217 3.8345,-6.73315 1.6424,-1.62244 3.1194,-4.376595 3.5834,-5.478225 0.4697,-1.115356 -0.0274,-3.467943 -1.0125,-5.360996 -2.5469,-4.192378 -1.7261,-11.828194 -0.7283,-17.025991 2.3928,-17.984652 5.7659,-24.328945 24.5222,-23.564624 z"
     id="fc-0"
     style="fill:#000000;stroke:none" />
  <path
     d="m 264.43696,273.1906 0,36 -60,0 0,36 -56.00005,0 0,36.375 -59.09375,0 0,35.875 -58.09375,0 0,23.40625 248.34375,-0.21875 0,-152 112,0 0,152 10,0 0,-167.4375 -137.1562,0 z"
     id="escada"
     style="fill:#000000;stroke:none" />
  <path
     d="m 360.91998,294.22154 c -5.7602,0.0333 -11.1173,4.0824 -18.5938,11.25 -4.078,3.49498 -9.5797,9.03269 -10.2812,13.90625 -0.4442,2.09954 -1.5527,4.25048 -2.625,4.84375 -0.8762,0.48472 -3.0188,1.43567 -5.0312,1.90625 -0.55,-0.0242 -1.0389,0.0421 -1.5,0.21875 -0.09,0.0343 -0.1897,0.0892 -0.2813,0.125 -1.7111,0.33411 -4.3278,1.3142 -6.6875,2.875 0.011,0.0534 0.02,0.10305 0.031,0.15625 -7.9552,4.09376 -17.6001,10.5747 -19.875,16.84375 -10.4328,28.7515 -7.4154,65.07354 -8.3437,96.5 -0.048,1.63824 0.4117,5.20095 -0.4375,10.5625 -0.5541,3.49934 -2.8928,14.50323 -2.5,16.96875 1.2223,7.67192 3.824,14.1582 9.2188,11.5 1.2265,-0.6043 7.5439,-15.09606 7.7187,-19.5 0.1421,-3.57991 -1.9235,-8.05667 -1.375,-12.84375 2.6068,-22.75061 7.1757,-37.91236 12.0625,-49.4375 2.0495,2.11189 0.5369,34.17061 -1.0938,37.25 -1.4724,2.78045 -2.4803,4.70637 -3.8437,7.28125 -5.172,9.7674 3.0767,33.81689 6.9687,47.71875 0.6501,2.32188 -0.6331,6.97038 -0.1874,8.4375 -3.8323,31.16313 0.5542,49.20461 4.9062,74.9375 0.6465,3.82258 2.7124,26.92263 3.125,31 0.6781,6.70138 -5.6526,9.8928 -4.9375,16.6875 1.8363,5.95922 27.0527,40.47223 29.7187,32.90625 0.97,-2.75256 0.7308,-5.95535 -0.062,-9.375 3.8361,3.50367 6.8124,5.12583 7.5,2.84375 3.1585,-10.48419 -11.3253,-27.4749 -9.2188,-38.78125 7.4555,-54.56702 9.1259,-90.44234 7.5,-112.53125 3.4861,-28.76758 3.3852,-67.65291 -4.6875,-84.8125 -7.2593,-15.43059 14.7428,-27.70389 -0.6563,-60.4375 1.2029,-3.49632 -4.2871,-8.31691 -7,-12.9375 1.2081,-1.03526 3.0677,-1.64328 4.1876,-0.96875 3.7121,2.23582 4.1503,7.86062 9.25,5.625 4.118,-1.8055 5.6915,-1.05424 11.8124,-5.90625 0.6434,-0.51005 3.1937,2.25746 3.8126,1.6875 2.2817,-2.10062 4.6485,-7.39244 6.4374,-10.3125 4.6275,-7.55217 14.5994,-16.67421 0.3126,-28.5 -6.1218,-5.2945 -10.8637,-7.71343 -15.3438,-7.6875 z"
     id="fc-100"
     style="fill:#000000;stroke:none;stroke-width:1;stroke-linecap:butt;stroke-linejoin:miter;stroke-miterlimit:4;stroke-dasharray:none;stroke-opacity:1" />
</svg>
